<svg xmlns="http://www.w3.org/2000/svg" xmlns:xlink="http://www.w3.org/1999/xlink" width="100%" height="100%" version="1.1" viewBox="0 0 12 12" xml:space="preserve" style="fill-rule:evenodd;clip-rule:evenodd;stroke-linecap:round;stroke-linejoin:round;stroke-miterlimit:1.5"><g><g><g transform="matrix(-0.120504,0,0,-0.120504,12.3154,12.2981) matrix(9.68333,0,0,9.68333,-70.4667,-70.4188) matrix(1.17962,0,0,1.17962,-1.18817,-1.21141)"><circle cx="11" cy="11" r="3" style="fill:none;stroke:#4d6e87;stroke-width:.69px"/></g><g transform="matrix(-0.120504,0,0,-0.120504,12.3154,12.2981) matrix(9.68333,0,0,9.68333,-70.4667,-70.4188) matrix(1.17962,0,0,1.17962,0.912203,0.892474)"><circle cx="11" cy="11" r="3" style="fill:none;stroke:#4d6e87;stroke-width:.69px"/></g></g><g><path d="M12,14L10.338,11.998" style="fill:none;stroke:#4d6e87;stroke-width:.51px" transform="matrix(-0.120504,0,0,-0.120504,12.3154,12.2981) matrix(9.6533,1.62993,1.62981,10.263,-85.7251,-87.7404)"/></g><g><path d="M12,14L10.338,11.998" style="fill:none;stroke:#4d6e87;stroke-width:.51px" transform="matrix(-0.120504,0,0,-0.120504,12.3154,12.2981) matrix(9.70311,1.68993,1.6898,10.3352,-65.4742,-109.723)"/></g><g><path d="M12,14L10.338,11.998" style="fill:none;stroke:#4d6e87;stroke-width:.39px" transform="matrix(-0.120504,0,0,-0.120504,12.3154,12.2981) matrix(10.7728,2.97868,2.97869,11.8881,-106.11,-134.26)"/></g></g></svg>