<svg xmlns="http://www.w3.org/2000/svg" xmlns:svg="http://www.w3.org/2000/svg" id="svg5" width="120" height="120" version="1.1" viewBox="0 0 31.75 31.75"><g id="layer1"><g id="g105808" transform="matrix(0.84136276,0,0,0.76030981,2.3613874,2.7808278)" style="fill:#000;fill-opacity:1"><text xml:space="preserve" style="font-size:8.46667px;line-height:1.25;font-family:'Heiti SC';-inkscape-font-specification:'Heiti SC';fill:#000;fill-opacity:1;stroke-width:.264583" id="text18840" x="10.97" y="10.531"><tspan id="tspan18838" style="font-style:normal;font-variant:normal;font-weight:900;font-stretch:normal;font-family:'Noto Sans CJK SC';-inkscape-font-specification:'Noto Sans CJK SC Heavy';fill:#000;fill-opacity:1;stroke-width:.264583" x="10.97" y="10.531">Word</tspan></text><text xml:space="preserve" style="font-size:8.46667px;line-height:1.25;font-family:'Heiti SC';-inkscape-font-specification:'Heiti SC';fill:#000;fill-opacity:1;stroke-width:.264583" id="text77352" x="-.962" y="20.535"><tspan id="tspan77350" style="font-style:normal;font-variant:normal;font-weight:900;font-stretch:normal;font-family:'Noto Sans CJK HK';-inkscape-font-specification:'Noto Sans CJK HK Heavy';fill:#000;fill-opacity:1;stroke-width:.264583" x="-.962" y="20.535">文字示例</tspan></text><text xml:space="preserve" style="font-size:8.46667px;line-height:1.25;font-family:'Heiti SC';-inkscape-font-specification:'Heiti SC';fill:#000;fill-opacity:1;stroke-width:.264583" id="text103486" x="-1.614" y="30.56"><tspan id="tspan103484" style="font-style:normal;font-variant:normal;font-weight:900;font-stretch:normal;font-family:'Noto Sans CJK SC';-inkscape-font-specification:'Noto Sans CJK SC Heavy';fill:#000;fill-opacity:1;stroke-width:.264583" x="-1.614" y="30.56">1234</tspan></text></g><path id="rect107866" style="opacity:.708188;fill:#fc0;fill-opacity:1;stroke:#303030;stroke-width:1.06921;stroke-miterlimit:4;stroke-dasharray:none;stroke-opacity:1" d="m 11.477479,4.7628436 c -0.155737,0 -0.28117,0.1522579 -0.28117,0.341496 v 6.8760434 c 0,0.161116 0.09136,0.295346 0.214482,0.331722 H 0.96537322 c -0.23868604,0 -0.43077004,0.148034 -0.43077004,0.331721 v 6.674082 c 0,0.183686 0.192084,0.331723 0.43077004,0.331723 H 0.78152806 c -0.13679254,0 -0.24692488,0.148035 -0.24692488,0.33172 v 6.674083 c 0,0.183684 0.11011819,0.331722 0.24692488,0.331722 H 17.87234 c 0.136809,0 0.246927,-0.148038 0.246927,-0.331722 v -6.674083 c 0,-0.183685 -0.110115,-0.33172 -0.246927,-0.33172 h 12.912286 c 0.238683,0 0.430771,-0.148036 0.430771,-0.331723 v -6.674082 c 0,-0.156819 -0.140343,-0.287063 -0.329838,-0.321949 h 0.04866 c 0.155737,0 0.28117,-0.152259 0.28117,-0.341494 V 5.1043396 c 0,-0.1892381 -0.125437,-0.341496 -0.28117,-0.341496 z"/></g></svg>