<svg xmlns="http://www.w3.org/2000/svg" xmlns:xlink="http://www.w3.org/1999/xlink" width="100%" height="100%" version="1.1" viewBox="0 0 12 12" xml:space="preserve" style="fill-rule:evenodd;clip-rule:evenodd;stroke-linecap:round;stroke-linejoin:round;stroke-miterlimit:1.5"><g><path d="M12,14L10.338,11.998" style="fill:none;stroke:#b166e6;stroke-width:.51px" transform="matrix(-1.16326,-0.196413,-0.196399,-1.23673,22.6456,22.8712)"/></g><g><path d="M12,14L10.338,11.998" style="fill:none;stroke:#b166e6;stroke-width:.51px" transform="matrix(-1.16926,-0.203643,-0.203628,-1.24543,20.2053,25.5202)"/></g><g><path d="M12,14L10.338,11.998" style="fill:none;stroke:#b166e6;stroke-width:.39px" transform="matrix(-1.29817,-0.358943,-0.358944,-1.43256,25.1021,28.477)"/></g><g><g><g transform="matrix(-1.16688,0,0,-1.16688,20.8069,20.7838) matrix(1.17962,0,0,1.17962,-1.18817,-1.21141)"><circle cx="11" cy="11" r="3" style="fill:none;stroke:#b166e6;stroke-width:.69px"/></g><g transform="matrix(-1.16688,0,0,-1.16688,20.8069,20.7838) matrix(1.17962,0,0,1.17962,0.912203,0.892474)"><circle cx="11" cy="11" r="3" style="fill:none;stroke:#b166e6;stroke-width:.69px"/></g></g></g></svg>